<svg xmlns="http://www.w3.org/2000/svg" viewBox="0 0 232.29 47.51"><defs><style>.cls-1{fill:#6d6e71;}.cls-2{fill:#00aeef;}</style></defs><g id="Layer_2" data-name="Layer 2"><g id="Layer_1-2" data-name="Layer 1"><path class="cls-1" d="M81.93,21.85a7.72,7.72,0,0,1,1.45,5v4.54A19.33,19.33,0,0,1,82,38.92H78.25a22.61,22.61,0,0,0,1.23-7.48V26.93A5.35,5.35,0,0,0,79,24.2a1.85,1.85,0,0,0-1.71-.8,1.93,1.93,0,0,0-1.76.81A5.37,5.37,0,0,0,75,26.93v5.23a7.49,7.49,0,0,1-1.64,5.27A6.3,6.3,0,0,1,68.5,39.2a6.15,6.15,0,0,1-4.79-1.78,7.56,7.56,0,0,1-1.62-5.26v-5a7.7,7.7,0,0,1,1.57-5.24,5.75,5.75,0,0,1,4.59-1.79,6.08,6.08,0,0,1,3,.69,3.77,3.77,0,0,1,1.7,2,4.66,4.66,0,0,1,1.84-2.08,5.76,5.76,0,0,1,2.9-.65A5.16,5.16,0,0,1,81.93,21.85ZM71.11,27.19a8,8,0,0,0-.25-2.28,2,2,0,0,0-.8-1.16,2.86,2.86,0,0,0-1.56-.35,2.61,2.61,0,0,0-1.48.35,2,2,0,0,0-.76,1.16A8.92,8.92,0,0,0,66,27.19v4.95a8.92,8.92,0,0,0,.23,2.28A2,2,0,0,0,67,35.58a2.7,2.7,0,0,0,1.48.34,3,3,0,0,0,1.56-.34,2,2,0,0,0,.8-1.16,8,8,0,0,0,.25-2.28Z"/><path class="cls-1" d="M98.21,21.9a7.53,7.53,0,0,1,1.64,5.26v4.28a19.33,19.33,0,0,1-1.37,7.48H94.67a22.61,22.61,0,0,0,1.23-7.48V27.19a8.48,8.48,0,0,0-.23-2.28,2,2,0,0,0-.76-1.16,3.3,3.3,0,0,0-3,0,1.91,1.91,0,0,0-.76,1.16A8.42,8.42,0,0,0,91,27.19v4.23a23,23,0,0,0,1.24,7.5H88.38A19.42,19.42,0,0,1,87,31.47V27.16a7.58,7.58,0,0,1,1.62-5.26,7.37,7.37,0,0,1,9.58,0Z"/><path class="cls-1" d="M115.9,33.14q0,6.06-6.47,6.06T103,33.14q0-5.31,4.9-6v-1a1.57,1.57,0,0,0-.32-1A9.55,9.55,0,0,0,106.44,24a8.1,8.1,0,0,1-.76-.72,2.36,2.36,0,0,1-.41-.76,4,4,0,0,1-.17-1.27v-.88h4v.41a1.41,1.41,0,0,0,.27.89,6,6,0,0,0,.94.89,4.43,4.43,0,0,1,1.16,1.25,3.32,3.32,0,0,1,.36,1.66v1.78C114.55,28,115.9,29.91,115.9,33.14Zm-4.55,2.19a3.28,3.28,0,0,0,.61-2.21,3.29,3.29,0,0,0-.61-2.22,2.45,2.45,0,0,0-1.94-.7,2.34,2.34,0,0,0-1.88.7,3.35,3.35,0,0,0-.6,2.22,3.33,3.33,0,0,0,.61,2.21,2.35,2.35,0,0,0,1.89.7A2.39,2.39,0,0,0,111.35,35.33Z"/><path class="cls-1" d="M130.38,21.9A7.53,7.53,0,0,1,132,27.16v4.28a19.33,19.33,0,0,1-1.36,7.48h-3.82a22.36,22.36,0,0,0,1.24-7.48V27.19a8.92,8.92,0,0,0-.23-2.28,2,2,0,0,0-.76-1.16,3.33,3.33,0,0,0-3,0,2,2,0,0,0-.76,1.16,8.92,8.92,0,0,0-.23,2.28v4.23a22.69,22.69,0,0,0,1.24,7.5h-3.82a19.61,19.61,0,0,1-1.36-7.45V27.16a7.58,7.58,0,0,1,1.62-5.26,7.37,7.37,0,0,1,9.58,0Z"/><path class="cls-1" d="M135.65,20.41h3.94V33.09a3.22,3.22,0,0,0,.65,2.24,2.69,2.69,0,0,0,2.08.7,2.78,2.78,0,0,0,2.09-.68,3.19,3.19,0,0,0,.65-2.23,3.5,3.5,0,0,0-.2-1.19,11.66,11.66,0,0,0-.58-1.31A10.78,10.78,0,0,1,143.6,29a5,5,0,0,1-.22-1.58V27h3.94a4.88,4.88,0,0,0,.22,1.34,13.58,13.58,0,0,0,.61,1.5,16.63,16.63,0,0,1,.64,1.69,5.17,5.17,0,0,1,.21,1.58q0,6.06-6.68,6.06t-6.67-6.08Z"/><path class="cls-1" d="M163.32,21.9A7.53,7.53,0,0,1,165,27.16v4.28a19.33,19.33,0,0,1-1.36,7.48h-3.82A22.36,22.36,0,0,0,161,31.44V27.19a8.92,8.92,0,0,0-.23-2.28,2,2,0,0,0-.76-1.16,3.33,3.33,0,0,0-3,0,2,2,0,0,0-.76,1.16,8.92,8.92,0,0,0-.23,2.28v4.23a22.69,22.69,0,0,0,1.24,7.5h-3.82a19.61,19.61,0,0,1-1.36-7.45V27.16a7.58,7.58,0,0,1,1.62-5.26,7.37,7.37,0,0,1,9.58,0Z"/><path class="cls-2" d="M23.61,26.31c.21,2.24.33,3.41-1.49,5.33a60,60,0,0,1-11.48,8.45,48.13,48.13,0,0,1-6.89,3.37C2.2,44,.89,44.25.24,43.13a2.16,2.16,0,0,1,0-2C1.94,36.58,6.8,28.05,10,22.49c.33-.56.66-1.14,1-1.73C15.84,12.34,22.3,2.05,23.57.4c.19-.24.52-.52.83-.34a.6.6,0,0,1,.22.65l-.11.46C22.41,9.67,22.64,18,23.61,26.31Z"/><path class="cls-2" d="M30.73,28.93c-2.05-.94-3.12-1.42-3.87-4a59.92,59.92,0,0,1-1.59-14.16,49.05,49.05,0,0,1,.53-7.65c.29-1.63.74-2.88,2-2.88a2.14,2.14,0,0,1,1.71,1C32.67,5,37.63,13.5,40.85,19c.33.56.67,1.14,1,1.74,4.85,8.42,10.53,19.17,11.33,21.1.11.27.19.7-.13.88a.57.57,0,0,1-.67-.14l-.34-.32C45.73,36.21,38.4,32.24,30.73,28.93Z"/><path class="cls-2" d="M24.9,33.79c1.83-1.31,2.79-2,5.36-1.38a60.49,60.49,0,0,1,13.06,5.71,48.78,48.78,0,0,1,6.36,4.29c1.26,1.06,2.12,2.07,1.47,3.2a2.16,2.16,0,0,1-1.72,1c-4.8.83-14.62.88-21,.92h-2c-9.72,0-21.87-.46-23.94-.74-.3,0-.7-.19-.7-.55a.59.59,0,0,1,.45-.51l.46-.14C11.09,43.14,18.19,38.78,24.9,33.79Z"/><path class="cls-1" d="M197.16,23.84V38.71h-4.22V23.84H188.2V20.38h13.71v3.46Z"/><path class="cls-1" d="M211,20.38q5.73,0,5.73,4.9A4.25,4.25,0,0,1,216,28a3.06,3.06,0,0,1-2.28,1.09,4,4,0,0,1,2.87,1.2,4.4,4.4,0,0,1,1,3.09c0,3.54-2.14,5.3-6.43,5.3h-6.68V20.38Zm.94,7.27a1.19,1.19,0,0,0,.66-.64,3.9,3.9,0,0,0,.18-1.36,3.94,3.94,0,0,0-.18-1.36,1.14,1.14,0,0,0-.66-.63,3.7,3.7,0,0,0-1.37-.19h-2.08v4.37h2.06A4,4,0,0,0,212,27.65Zm.42,7.7a1.32,1.32,0,0,0,.77-.71,3.54,3.54,0,0,0,.23-1.48,3.6,3.6,0,0,0-.23-1.48,1.28,1.28,0,0,0-.79-.7,4.94,4.94,0,0,0-1.64-.2h-2.21v4.77h2.21A5.32,5.32,0,0,0,212.4,35.35Z"/><path class="cls-1" d="M221.79,36.63q-2.08-2.34-2.08-7.06,0-9.45,8.36-9.44a11.81,11.81,0,0,1,3.87.6l-.78,3.36a6.08,6.08,0,0,0-2.84-.62,5.67,5.67,0,0,0-2.7.51,2.87,2.87,0,0,0-1.29,1.81,14.36,14.36,0,0,0-.38,3.78,14.53,14.53,0,0,0,.36,3.73,2.74,2.74,0,0,0,1.29,1.77,5.53,5.53,0,0,0,2.64.5,6.45,6.45,0,0,0,3.3-.78l.75,3.45a11.48,11.48,0,0,1-4.22.72C225.27,39,223.18,38.19,221.79,36.63Z"/><rect class="cls-1" x="175.26" y="18.32" width="2.62" height="23.77"/></g></g></svg>